<?xml version="1.0" encoding="UTF-8"?>
<svg width="32" height="32" viewBox="0 0 32 32" fill="none" xmlns="http://www.w3.org/2000/svg">
  <!-- Background Circle -->
  <circle cx="16" cy="16" r="15" fill="url(#gradient)" />
  
  <!-- Smiling Shopping Bag Symbol -->
  <path d="M22 13H10C9.5 13 9 13.5 9 14V22C9 22.5 9.5 23 10 23H22C22.5 23 23 22.5 23 22V14C23 13.5 22.5 13 22 13Z" stroke="white" stroke-width="1.5" stroke-linecap="round" stroke-linejoin="round"/>
  
  <!-- Shopping Bag Handles -->
  <path d="M13 12C13 10.5 14.5 9 16 9H16C17.5 9 19 10.5 19 12V13H13V12Z" stroke="white" stroke-width="1.5" stroke-linecap="round" stroke-linejoin="round"/>
  
  <!-- Smiling Face in Bag -->
  <circle cx="16" cy="17" r="1" fill="white" />
  <path d="M13.5 20C14.5 21 17.5 21 18.5 20" stroke="white" stroke-width="1.2" stroke-linecap="round" />
  
  <!-- Gradient Definition -->
  <defs>
    <linearGradient id="gradient" x1="0" y1="0" x2="32" y2="32" gradientUnits="userSpaceOnUse">
      <stop offset="0" stop-color="#FF8C00"/>
      <stop offset="1" stop-color="#FF5722"/>
    </linearGradient>
  </defs>
</svg>
